<svg width="20" height="20" viewBox="0 0 20 20" fill="none" xmlns="http://www.w3.org/2000/svg">
<path d="M1.72852 3.11523C1.95571 3.12007 1.95571 3.12007 2.1875 3.125C2.7828 4.48949 3.21638 5.90635 3.66074 7.32498C3.79019 7.73799 3.92079 8.15062 4.05151 8.56323C4.13418 8.82566 4.21678 9.08811 4.29932 9.35059C4.33837 9.47395 4.37742 9.59731 4.41766 9.72441C4.6875 10.5889 4.6875 10.5889 4.6875 10.9375C8.19375 10.9375 11.7 10.9375 15.3125 10.9375C15.4672 10.3703 15.6219 9.80312 15.7812 9.21875C15.9287 8.73058 16.078 8.24372 16.2317 7.75757C16.2723 7.62858 16.3129 7.4996 16.3547 7.3667C16.4393 7.09805 16.5241 6.82945 16.6091 6.5609C16.7397 6.14801 16.8693 5.73484 16.9989 5.32166C17.0817 5.05939 17.1645 4.79714 17.2473 4.53491C17.286 4.41123 17.3248 4.28756 17.3647 4.16013C17.6383 3.29916 17.6383 3.29916 17.8125 3.125C18.2715 3.0957 18.2715 3.0957 18.75 3.125C18.9047 3.27969 18.9047 3.27969 19.0625 3.4375C19.0051 4.34518 18.7259 5.17848 18.4467 6.03943C18.3794 6.2504 18.3794 6.2504 18.3107 6.46563C18.1682 6.9116 18.0246 7.35717 17.8809 7.80273C17.7836 8.10636 17.6865 8.41001 17.5894 8.71368C17.3522 9.45525 17.1139 10.1965 16.875 10.9375C17.0464 10.9816 17.2178 11.0257 17.3944 11.0712C18.1446 11.3048 18.5492 11.6607 18.9239 12.3523C19.1243 13.0178 19.1201 13.6543 19.1211 14.3457C19.1249 14.4808 19.1287 14.6158 19.1327 14.7549C19.1369 15.6921 18.9879 16.4145 18.4375 17.1875C18.125 17.4463 18.125 17.4463 17.8125 17.5781C17.7094 17.6249 17.6062 17.6716 17.5 17.7197C17.1875 17.8125 17.1875 17.8125 16.5625 17.8125C16.5399 17.9124 16.5174 18.0123 16.4941 18.1152C16.4062 18.4375 16.4062 18.4375 16.25 18.5938C15.8691 18.623 15.8691 18.623 15.4687 18.5938C15.3656 18.4906 15.2625 18.3875 15.1562 18.2812C15.1562 18.1266 15.1562 17.9719 15.1562 17.8125C11.7531 17.8125 8.35 17.8125 4.84375 17.8125C4.79219 18.0188 4.74062 18.225 4.6875 18.4375C4.53125 18.5938 4.53125 18.5938 4.15039 18.623C3.75 18.5938 3.75 18.5938 3.4375 18.2812C3.4375 18.1266 3.4375 17.9719 3.4375 17.8125C3.27314 17.7964 3.10879 17.7803 2.93945 17.7637C2.33256 17.6542 2.03149 17.5804 1.5625 17.1875C0.945559 16.2833 0.839864 15.4481 0.859375 14.375C0.856958 14.2421 0.854541 14.1091 0.852051 13.9722C0.85771 13.0496 1.02132 12.3227 1.5625 11.5625C1.88599 11.3037 1.88599 11.3037 2.20703 11.1719C2.31378 11.1251 2.42053 11.0784 2.53052 11.0303C2.8125 10.9375 2.8125 10.9375 3.125 10.9375C3.09725 10.8531 3.0695 10.7687 3.0409 10.6818C2.75231 9.80292 2.46632 8.92327 2.18182 8.0431C2.07531 7.71477 1.96815 7.38665 1.86031 7.05875C1.70539 6.58728 1.55285 6.11509 1.40076 5.6427C1.3521 5.49635 1.30345 5.35 1.25332 5.19922C1.20951 5.06163 1.1657 4.92405 1.12057 4.7823C1.06176 4.6017 1.06176 4.6017 1.00176 4.41745C0.925215 3.99464 0.978715 3.69283 1.09375 3.28125C1.25 3.125 1.25 3.125 1.72852 3.11523ZM10.625 13.4375C10.288 13.7119 10.288 13.7119 10.271 14.043C10.2718 14.1525 10.2726 14.2621 10.2734 14.375C10.2726 14.4846 10.2718 14.5941 10.271 14.707C10.288 15.0381 10.288 15.0381 10.625 15.3125C11.0597 15.2492 11.0597 15.2492 11.4062 15C11.4421 14.3724 11.4421 14.3724 11.4062 13.75C11.3031 13.6469 11.2 13.5437 11.0937 13.4375C10.9391 13.4375 10.7844 13.4375 10.625 13.4375ZM13.125 13.4375C12.788 13.7119 12.788 13.7119 12.771 14.043C12.7718 14.1525 12.7726 14.2621 12.7734 14.375C12.7726 14.4846 12.7718 14.5941 12.771 14.707C12.788 15.0381 12.788 15.0381 13.125 15.3125C13.5597 15.2492 13.5597 15.2492 13.9062 15C13.9421 14.3724 13.9421 14.3724 13.9062 13.75C13.8031 13.6469 13.7 13.5437 13.5937 13.4375C13.4391 13.4375 13.2844 13.4375 13.125 13.4375ZM15.625 13.4375C15.288 13.7119 15.288 13.7119 15.271 14.043C15.2718 14.1525 15.2726 14.2621 15.2734 14.375C15.2726 14.4846 15.2718 14.5941 15.271 14.707C15.288 15.0381 15.288 15.0381 15.625 15.3125C16.0597 15.2492 16.0597 15.2492 16.4062 15C16.4421 14.3724 16.4421 14.3724 16.4062 13.75C16.3031 13.6469 16.2 13.5437 16.0937 13.4375C15.9391 13.4375 15.7844 13.4375 15.625 13.4375Z" fill="#20232D"/>
<path d="M13.125 2.03125C13.7544 2.44496 14.3118 2.90555 14.8438 3.4375C14.8829 3.82813 14.8829 3.82813 14.8438 4.21875C14.7407 4.32188 14.6375 4.425 14.5313 4.53125C13.8664 4.53125 13.4998 4.32835 12.9981 3.92578C11.8138 2.99447 10.5467 2.79984 9.06255 2.96875C7.98765 3.22243 7.2105 3.6616 6.36296 4.35425C6.0938 4.53125 6.0938 4.53125 5.63481 4.52149C5.31255 4.375 5.31255 4.375 5.1563 4.21875C5.09981 3.74881 5.08934 3.52316 5.38579 3.14392C7.58438 1.32163 10.4897 0.715465 13.125 2.03125Z" fill="#20232D"/>
<path d="M11.8164 4.73633C12.3161 5.00558 12.4893 5.14024 12.8125 5.625C12.728 6.33446 12.728 6.33446 12.5 6.5625C11.9284 6.51853 11.5127 6.47447 11.0254 6.16211C10.4773 5.85465 9.98199 5.82766 9.375 5.9375C9.07616 6.0735 9.07616 6.0735 8.79883 6.25C8.28928 6.55765 8.07712 6.66144 7.5 6.5625C7.1875 6.25 7.1875 6.25 7.16797 5.81055C7.42386 5.08551 7.92297 4.85881 8.59375 4.53125C9.67588 4.17054 10.793 4.24028 11.8164 4.73633Z" fill="#20232D"/>
<path d="M10.4688 7.34375C10.7617 7.5293 10.7617 7.5293 10.9375 7.8125C11.0044 8.25857 11.001 8.4914 10.7617 8.87696C10.3326 9.14875 10.0284 9.12464 9.53126 9.0625C9.23829 8.87696 9.23829 8.87696 9.06251 8.59375C8.9956 8.14769 8.99898 7.91486 9.23829 7.5293C9.66744 7.25751 9.97164 7.28162 10.4688 7.34375Z" fill="#20232D"/>
</svg>
